<svg width="24" height="24" viewBox="0 0 24 24" fill="none" xmlns="http://www.w3.org/2000/svg">
<rect width="24" height="24" fill="#E5E5E5"/>
<g clip-path="url(#clip0_0_1)">
<rect width="1440" height="900" transform="translate(-725 -685)" fill="white"/>
<rect x="-725" y="-685" width="1440" height="900" fill="#F7F8F9"/>
<g filter="url(#filter0_d_0_1)">
<rect x="-51" y="-642" width="655" height="814" fill="white"/>
</g>
<mask id="mask0_0_1" style="mask-type:alpha" maskUnits="userSpaceOnUse" x="3" y="3" width="18" height="18">
<path fill-rule="evenodd" clip-rule="evenodd" d="M19 3H5C3.9 3 3 3.9 3 5V19C3 20.1 3.9 21 5 21H19C20.1 21 21 20.1 21 19V5C21 3.9 20.1 3 19 3ZM10 17L5 12.1923L6.4 10.8462L10 14.3077L17.6 7L19 8.34615L10 17Z" fill="black"/>
</mask>
<g mask="url(#mask0_0_1)">
<rect x="3" y="3" width="18" height="18" fill="#57BEBE"/>
</g>
</g>
<defs>
<filter id="filter0_d_0_1" x="-70" y="-660" width="695" height="854" filterUnits="userSpaceOnUse" color-interpolation-filters="sRGB">
<feFlood flood-opacity="0" result="BackgroundImageFix"/>
<feColorMatrix in="SourceAlpha" type="matrix" values="0 0 0 0 0 0 0 0 0 0 0 0 0 0 0 0 0 0 127 0" result="hardAlpha"/>
<feOffset dx="1" dy="2"/>
<feGaussianBlur stdDeviation="10"/>
<feColorMatrix type="matrix" values="0 0 0 0 0 0 0 0 0 0 0 0 0 0 0 0 0 0 0.08 0"/>
<feBlend mode="normal" in2="BackgroundImageFix" result="effect1_dropShadow_0_1"/>
<feBlend mode="normal" in="SourceGraphic" in2="effect1_dropShadow_0_1" result="shape"/>
</filter>
<clipPath id="clip0_0_1">
<rect width="1440" height="900" fill="white" transform="translate(-725 -685)"/>
</clipPath>
</defs>
</svg>
